<?xml version="1.0" encoding="UTF-8"?>
<svg width="623px" height="838px" viewBox="0 0 623 838" version="1.1" xmlns="http://www.w3.org/2000/svg" xmlns:xlink="http://www.w3.org/1999/xlink">
    <title>campfire</title>
    <defs>
        <filter id="filter-1">
            <feColorMatrix in="SourceGraphic" type="matrix" values="0 0 0 0 0.972549 0 0 0 0 0.972549 0 0 0 0 0.972549 0 0 0 0.820000 0"></feColorMatrix>
        </filter>
    </defs>
    <g id="Page-1" stroke="none" stroke-width="1" fill="none" fill-rule="evenodd">
        <g filter="url(#filter-1)" id="1589369513bonfire-silhouette-freesvg.org">
            <g id="g3472" transform="translate(311.833332, 418.999999) scale(-1, 1) rotate(-180.000000) translate(-311.833332, -418.999999) translate(0.333332, -0.000001)" fill="#231F20">
                <path d="M88.1133287,293.302658 L85.5013287,307.073324 C75.569329,359.446656 94.9839952,413.070655 136.142661,446.943987 C175.16266,479.06132 193.566659,529.897318 184.15066,579.547984 L181.225326,563.849318 C172.679993,517.993319 132.954661,484.543986 86.3119954,483.931986 C64.9999959,483.651986 45.1306631,473.122653 32.9359967,455.642654 C20.7426637,438.162654 17.7173304,415.878655 24.8119969,395.781322 L26.1199969,410.793321 C27.1799969,422.958654 37.8973299,431.967987 50.0639963,430.923988 C62.2333293,429.879988 71.2573291,419.178654 70.2306625,407.009321 C66.9573292,368.218656 73.0919957,329.21199 88.1133287,293.302658 M224.830659,495.290653 L237.787992,499.610652 C265.970658,509.002652 287.554657,531.918652 295.242657,560.613318 C302.93199,589.307984 295.698657,619.945316 275.987991,642.171982 C251.006658,670.342648 240.747992,708.633314 248.297325,745.51998 L237.247992,732.85198 C206.803992,697.941314 194.205326,650.919982 203.115992,605.46665 C206.605326,587.669317 215.915992,571.541317 229.583992,559.622651 C237.629325,552.605318 242.247991,542.451985 242.247991,531.774652 C242.247991,512.125319 234.954658,503.615986 224.830659,495.290653 M422.274654,566.178651 C456.518653,527.139985 470.971986,422.989321 393.978654,370.262656 C368.394655,352.742656 352.129322,324.57199 349.747989,293.653324 C368.241322,344.91599 476.329319,419.337321 514.532158,382.513322 C514.532158,393.070655 514.799985,425.539988 494.257319,440.861321 C489.329319,444.53732 485.829319,449.79732 485.551985,455.939987 C483.494652,501.639986 468.957319,535.543985 422.274654,566.178651 M408.403987,593.417317 C402.242654,643.181316 388.337321,671.357315 338.329322,715.750647 C292.533324,756.403979 284.433324,792.478645 299.730657,837.997311 C274.133324,810.774645 263.517324,768.339979 272.338657,728.510647 C281.158657,688.681314 307.88799,658.355982 341.302656,650.263982 C361.609322,645.346649 380.019988,632.486649 393.691988,613.667983 L408.403987,593.417317 Z M290.417324,234.442659 C274.370657,242.683992 271.630657,259.199992 255.081325,290.165324 C238.021325,322.08399 201.217326,338.03999 166.257327,328.67199 C131.298661,319.305324 107.402662,287.083991 108.589328,250.914659 L109.150661,233.766659 C88.6333287,280.977325 91.7133286,335.130657 117.453328,379.711989 C143.194661,424.295988 188.547993,454.039987 239.695992,459.875987 C274.541324,463.85332 305.43599,484.114653 322.971989,514.486652 C340.506656,544.859985 342.606656,581.745317 328.627989,613.91065 L322.903989,627.085316 C370.583988,598.497317 399.766654,546.978651 399.766654,491.381319 C399.766654,435.782654 370.583988,384.265322 322.903989,355.675989 C281.146657,330.63999 266.774658,277.002658 290.417324,234.442659 M416.366654,223.170659 L360.275989,197.787993 L264.359991,167.290661 L350.210655,202.70666 L416.366654,223.170659 Z M402.226654,177.413327 L403.186654,176.735994 L225.502659,88.6733294 L297.850657,146.981328 L141.277327,100.547996 L357.779989,175.595994 L328.085323,150.758661 L402.226654,177.413327 Z M407.045321,178.649327 L406.353321,178.895994 L410.693321,180.455994 L407.045321,178.649327 Z M622.249315,101.422662 L425.791987,171.921327 L496.714652,212.867993 C492.314652,218.018659 487.347985,222.482659 481.961319,226.234659 L415.011987,201.24266 L473.630652,231.301326 C454.711986,241.234659 432.10532,243.207992 411.146654,235.795992 L329.471989,206.485326 L211.501326,248.821325 C190.545326,256.234659 167.939993,254.259992 149.019994,244.326659 L207.637326,214.27066 L140.687994,239.261326 C135.303994,235.510659 130.333328,231.041326 125.934661,225.895993 L214.286659,174.885327 L237.429325,180.857327 L211.957326,193.481327 L243.043991,182.305327 L265.491991,188.101327 L264.867991,188.623994 L265.995991,188.233327 L303.190657,197.835993 L262.375991,210.813326 L206.279992,236.194659 L272.435991,215.73066 L310.957323,199.84266 L0.401330873,88.3973294 L18.2679971,76.3053297 C26.2199969,79.2479963 34.1519967,80.6119963 41.7973298,80.5946629 L159.903994,124.035995 L56.7026628,78.758663 C71.0226624,75.1946631 83.4919955,66.6093299 91.9999953,54.5986636 L141.277327,68.9653299 L97.7986618,44.5439972 C101.399995,36.7199974 103.530662,27.9173309 103.789328,18.4253311 L129.634661,0.931998252 L400.635988,157.397328 L389.398654,145.458661 L481.373319,113.575995 L386.007988,141.857328 L369.319988,124.125329 L397.146654,101.697329 L363.775988,118.237329 L345.691989,99.0173291 L493.017319,13.9599979 L518.861318,31.4519975 C519.117318,40.9413306 521.250651,49.7453304 524.849318,57.5679968 L481.373319,81.9906629 L530.649318,67.6253299 C539.157317,79.634663 551.625317,88.2199961 565.947983,91.7866626 L462.747986,137.062662 L580.851983,93.6226626 C588.497316,93.6386626 596.427983,92.275996 604.381316,89.3306627 L622.249315,101.422662 Z" id="path3574"></path>
            </g>
        </g>
    </g>
</svg>
