<svg width="623" height="838" xmlns="http://www.w3.org/2000/svg"><defs><filter id="a"><feColorMatrix in="SourceGraphic" values="0 0 0 0 0.972549 0 0 0 0 0.972549 0 0 0 0 0.972549 0 0 0 0.820000 0"/></filter></defs><g filter="url(#a)" fill="none" fill-rule="evenodd"><path d="M88.447 544.697l-2.612-13.77c-9.932-52.374 9.482-105.998 50.641-139.871 39.02-32.117 57.424-82.953 48.008-132.604l-2.925 15.699c-8.546 45.856-48.271 79.305-94.914 79.917a66.137 66.137 0 00-61.5 88.15l1.308-15.011c1.06-12.166 11.778-21.175 23.944-20.131 12.17 1.044 21.194 11.745 20.167 23.915a241.933 241.933 0 0017.883 113.706M225.164 342.71l12.957-4.32a88.426 88.426 0 0038.2-142.561 119.619 119.619 0 01-27.69-103.348l-11.05 12.668a149.932 149.932 0 00-34.132 127.385 81.67 81.67 0 0026.468 45.844 36.952 36.952 0 0112.664 27.848c0 19.65-7.293 28.159-17.417 36.484m197.444-70.888c34.244 39.039 48.697 143.19-28.296 195.916a102.378 102.378 0 00-44.23 76.61c18.493-51.263 126.58-125.684 164.783-88.86 0-10.558.268-43.027-20.274-58.348-4.928-3.676-8.428-8.936-8.706-15.079-2.057-45.7-16.594-79.604-63.277-110.239m-13.87-27.238c-6.162-49.764-20.067-77.94-70.075-122.334C292.867 81.596 284.767 45.521 300.064.003c-25.597 27.222-36.213 69.657-27.392 109.486 8.82 39.83 35.55 70.155 68.964 78.247 20.307 4.917 38.717 17.777 52.39 36.596l14.711 20.25zM290.75 603.557c-16.047-8.241-18.787-24.757-35.336-55.722-17.06-31.919-53.864-47.875-88.824-38.507-34.959 9.367-58.855 41.588-57.668 77.757l.561 17.148a162.425 162.425 0 01130.545-226.109 110.65 110.65 0 0088.932-154.035l-5.724-13.174c47.68 28.588 76.863 80.106 76.863 135.704 0 55.598-29.183 107.116-76.863 135.705-41.757 25.036-56.129 78.673-32.486 121.233M416.7 614.83l-56.09 25.383-95.917 30.497 85.851-35.416L416.7 614.83zm-14.14 45.758l.96.677-177.684 88.063 72.348-58.308-156.573 46.433 216.502-75.048-29.694 24.837 74.141-26.654zm4.819-1.236l-.692-.247 4.34-1.56-3.648 1.807zm215.204 77.226L426.125 666.08l70.923-40.947a78.072 78.072 0 00-14.753-13.367l-66.95 24.992 58.619-30.058c-18.919-9.934-41.525-11.907-62.484-4.495l-81.675 29.31-117.97-42.335c-20.956-7.414-43.562-5.439-62.482 4.494l58.618 30.056-66.95-24.99a78.24 78.24 0 00-14.753 13.365l88.352 51.01 23.143-5.971-25.472-12.624 31.086 11.176 22.448-5.796-.624-.523 1.128.39 37.195-9.602-40.815-12.977-56.096-25.382 66.156 20.464 38.522 15.888L.735 749.603 18.6 761.695c7.952-2.943 15.884-4.307 23.53-4.29l118.106-43.441-103.201 45.277c14.32 3.564 26.79 12.15 35.297 24.16l49.278-14.366-43.479 24.421c3.601 7.824 5.732 16.627 5.99 26.119l25.846 17.493 271.001-156.465-11.237 11.938 91.975 31.883-95.366-28.281-16.688 17.732 27.827 22.428-33.37-16.54-18.085 19.22 147.326 85.057 25.844-17.492c.256-9.49 2.389-18.293 5.988-26.116l-43.476-24.423 49.276 14.366c8.508-12.01 20.976-20.595 35.298-24.162l-103.2-45.276 118.104 43.44c7.646-.016 15.576 1.347 23.53 4.292l17.868-12.092z" fill="#231F20"/></g></svg>
